<?xml version="1.0" standalone="no"?>
<!DOCTYPE svg PUBLIC "-//W3C//DTD SVG 20010904//EN"
 "http://www.w3.org/TR/2001/REC-SVG-20010904/DTD/svg10.dtd">
<svg version="1.0" xmlns="http://www.w3.org/2000/svg"
 width="860.000000pt" height="1280.000000pt" viewBox="0 0 860.000000 1280.000000"
 preserveAspectRatio="xMidYMid meet">
<metadata>
Created by potrace 1.15, written by Peter Selinger 2001-2017
</metadata>
<g transform="translate(0.000000,1280.000000) scale(0.100000,-0.100000)"
fill="#ffffff" stroke="none">
<path d="M7708 8436 l-3 -4364 -110 69 c-933 586 -2489 766 -4020 464 -1221
-240 -2248 -722 -2909 -1365 -353 -344 -561 -689 -642 -1070 -22 -104 -25
-382 -6 -475 112 -523 465 -919 1097 -1230 498 -245 1036 -381 1775 -447 190
-17 836 -17 1040 0 85 7 216 20 290 28 1712 189 3311 927 3995 1845 137 183
217 333 282 529 l36 105 8 1125 c4 619 13 1901 19 2850 19 3055 29 4616 36
5468 l6 832 -446 0 -446 0 -2 -4364z"/>
</g>
</svg>
